<svg xmlns="http://www.w3.org/2000/svg" width="23" height="23" fill="none"><mask id="b" fill="#fff"><path d="m1.459 5.262.848-.005a.85.85 0 0 0-.004-.082l-.844.087ZM17.383 21.18l.087-.844a.831.831 0 0 0-.082-.004l-.005.848ZM6.025 8.76l-.134-.837a.848.848 0 0 0-.613 1.24l.747-.403Zm7.858 7.856-.402.747a.848.848 0 0 0 1.24-.613l-.838-.134ZM3.197 2.656a3.111 3.111 0 0 1 4.398 0l1.2-1.2a4.808 4.808 0 0 0-6.797 0l1.199 1.2Zm4.398 0a3.107 3.107 0 0 1 0 4.396l1.2 1.2a4.804 4.804 0 0 0 0-6.796l-1.2 1.2Zm7.997 12.39a3.111 3.111 0 0 1 4.399 0l1.199-1.2a4.808 4.808 0 0 0-6.797 0l1.2 1.2Zm4.399 0a3.107 3.107 0 0 1 0 4.396l1.199 1.2a4.804 4.804 0 0 0 0-6.796l-1.2 1.2Zm-12.796.4C4 12.25 2.325 8.411 2.307 5.255l-1.696.01c.02 3.7 1.95 7.945 5.385 11.379l1.2-1.2ZM2.303 5.174a3.1 3.1 0 0 1 .894-2.52l-1.2-1.199A4.796 4.796 0 0 0 .616 5.349l1.688-.174ZM19.99 19.442a3.103 3.103 0 0 1-2.52.894l-.175 1.687a4.8 4.8 0 0 0 3.894-1.381l-1.2-1.2Zm-2.603.89c-3.156-.018-6.997-1.692-10.193-4.887l-1.199 1.2c3.435 3.434 7.682 5.362 11.382 5.383l.01-1.696ZM7.595 7.052a3.093 3.093 0 0 1-1.704.871l.267 1.675a4.789 4.789 0 0 0 2.637-1.347l-1.2-1.2Zm2.4 5.595A18.571 18.571 0 0 1 6.77 8.358l-1.493.805a20.267 20.267 0 0 0 3.517 4.684l1.2-1.2Zm4.726 4.103c.1-.624.39-1.222.871-1.704l-1.2-1.2a4.786 4.786 0 0 0-1.346 2.636l1.675.268Zm-.436-.88a18.574 18.574 0 0 1-4.29-3.223l-1.2 1.2a20.275 20.275 0 0 0 4.686 3.516l.804-1.494Z"/></mask><path fill="#9D9D9D" d="m1.459 5.262.848-.005a.85.85 0 0 0-.004-.082l-.844.087ZM17.383 21.18l.087-.844a.831.831 0 0 0-.082-.004l-.005.848ZM6.025 8.76l-.134-.837a.848.848 0 0 0-.613 1.24l.747-.403Zm7.858 7.856-.402.747a.848.848 0 0 0 1.24-.613l-.838-.134ZM3.197 2.656a3.111 3.111 0 0 1 4.398 0l1.2-1.2a4.808 4.808 0 0 0-6.797 0l1.199 1.2Zm4.398 0a3.107 3.107 0 0 1 0 4.396l1.2 1.2a4.804 4.804 0 0 0 0-6.796l-1.2 1.2Zm7.997 12.39a3.111 3.111 0 0 1 4.399 0l1.199-1.2a4.808 4.808 0 0 0-6.797 0l1.2 1.2Zm4.399 0a3.107 3.107 0 0 1 0 4.396l1.199 1.2a4.804 4.804 0 0 0 0-6.796l-1.2 1.2Zm-12.796.4C4 12.25 2.325 8.411 2.307 5.255l-1.696.01c.02 3.7 1.95 7.945 5.385 11.379l1.2-1.2ZM2.303 5.174a3.1 3.1 0 0 1 .894-2.52l-1.2-1.199A4.796 4.796 0 0 0 .616 5.349l1.688-.174ZM19.99 19.442a3.103 3.103 0 0 1-2.52.894l-.175 1.687a4.8 4.8 0 0 0 3.894-1.381l-1.2-1.2Zm-2.603.89c-3.156-.018-6.997-1.692-10.193-4.887l-1.199 1.2c3.435 3.434 7.682 5.362 11.382 5.383l.01-1.696ZM7.595 7.052a3.093 3.093 0 0 1-1.704.871l.267 1.675a4.789 4.789 0 0 0 2.637-1.347l-1.2-1.2Zm2.4 5.595A18.571 18.571 0 0 1 6.77 8.358l-1.493.805a20.267 20.267 0 0 0 3.517 4.684l1.2-1.2Zm4.726 4.103c.1-.624.39-1.222.871-1.704l-1.2-1.2a4.786 4.786 0 0 0-1.346 2.636l1.675.268Zm-.436-.88a18.574 18.574 0 0 1-4.29-3.223l-1.2 1.2a20.275 20.275 0 0 0 4.686 3.516l.804-1.494Z"/><path fill="url(#a)" d="m7.595 7.052.4-.4-.8.8.4-.4Zm6.798 6.794.4-.4-.8.8.4-.4Zm5.598 5.596.4-.4-.8.8.4-.4ZM5.996 16.645l-.4-.4.8.8-.4-.4ZM2.997 1.656l-.6-.6-.8.8.6.6.8-.8Zm5.598.8.6-.6-.8-.8-.6.6.8.8Zm0 4.796-.6-.6-.8.8.6.6.8-.8Zm6.797 6.795-.6-.6-.8.799.6.6.8-.8Zm5.598 5.595-.6-.6-.8.8.6.6.8-.8ZM6.196 15.645l-.6.6.8.8.6-.6-.8-.8Zm1.8-12.59 1.199-1.2-.8-.799-1.2 1.2.8.8Zm-6.398-1.2 1.199 1.2.8-.799-1.2-1.2-.8.8Zm5.598 5.596 1.199 1.2.8-.8-1.2-1.2-.8.8Zm13.194 7.995 1.2-1.2-.8-.8-1.2 1.2.8.8Zm-6.397-1.2 1.2 1.2.799-.8-1.2-1.2-.8.8Zm5.598 5.596 1.199 1.2.8-.8-1.2-1.2-.8.8ZM6.396 17.045l1.2-1.2-.8-.8-1.2 1.2.8.8Zm2.799-2.798 1.2-1.2-.8-.8-1.2 1.2.8.8ZM1.998 1.456l.8.8-.8-.8Zm6.797 0-.8.8.8-.8Zm-1.2 5.596.8.8-.8-.8Zm6.798 6.794-.8-.8.8.8Zm5.598 5.596-.8-.8.8.8ZM5.996 16.645l-.8.8.8-.8ZM1.46 5.262l-.116-1.125.122 2.255-.006-1.13Zm.848-.005 1.131-.007-1.13.007ZM17.383 21.18l-1.13-.007 2.255.123-1.125-.116Zm.087-.844.116-1.125h-.004l-.112 1.125ZM6.025 8.76l.536.996.707-.381-.127-.793-1.116.178Zm-.76-.375 1.013.5-1.014-.5Zm.013.778-.996.537.996-.537Zm8.605 7.453.179-1.117-.794-.127-.38.707.995.537Zm.376.76.5 1.014-.5-1.014Zm.462-.626 1.116.179-1.116-.18ZM3.197 2.656l-.8-.8.8.8Zm4.398 0 .8-.8-.8.8Zm1.2 5.595-.8-.8.8.8Zm6.797 6.795.8.8-.8-.8Zm4.399 0 .8-.8-.8.8Zm1.199-1.2.8-.8-.8.8Zm0 6.796.8.8-.8-.8ZM7.195 15.445l.8-.8-.8.8ZM.611 5.266l-.007-1.13-1.13.006.006 1.13 1.13-.006Zm.004.083-1.125.115.116 1.125 1.125-.115-.116-1.125Zm16.681 16.674-1.125-.116-.116 1.125 1.125.116.116-1.125Zm.082.005-.006 1.13 1.131.007.006-1.13-1.13-.007ZM6.158 9.598l-1.116.179.178 1.116 1.117-.178-.179-1.117Zm3.836 3.05.8-.8-.8.8Zm-3.223-4.29.996-.537-.537-.995-.996.537.537.995Zm2.024 5.49-.8.799.8-.8Zm4.25 2.634-1.116-.179-.179 1.117 1.117.179.178-1.117Zm1.24-.613.996.537.536-.996-.995-.537-.537.996ZM1.465 6.392l.849-.004L2.3 4.126l-.848.005.012 2.261ZM3.438 5.25a1.98 1.98 0 0 0-.01-.191l-2.25.232a.282.282 0 0 1-.002-.028l2.262-.013Zm-1.251-1.2-.844.087.232 2.25.844-.087-.232-2.25Zm16.321 17.246.087-.844-2.25-.232-.087.844 2.25.232Zm-.926-2.085a2.003 2.003 0 0 0-.19-.01l-.008 2.261h-.026l.224-2.251Zm-1.325 1.114-.005.848 2.262.013.005-.848-2.262-.013ZM7.141 8.582l-.134-.838-2.233.357.134.838 2.233-.357ZM5.712 6.806A1.98 1.98 0 0 0 4.25 7.884l2.028 1.002a.283.283 0 0 1-.209.154l-.357-2.234ZM4.25 7.884A1.98 1.98 0 0 0 4.282 9.7l1.991-1.074c.044.08.046.178.005.26L4.25 7.884Zm1.565 2.274.746-.402-1.073-1.99-.747.402 1.074 1.99Zm7.072 5.921-.402.747 1.991 1.073.403-.747-1.992-1.073Zm.057 2.28a1.98 1.98 0 0 0 1.816.031l-1.002-2.028a.282.282 0 0 1 .26.005l-1.074 1.991Zm1.816.031a1.98 1.98 0 0 0 1.077-1.461l-2.233-.358a.282.282 0 0 1 .154-.209l1.002 2.028Zm.14-2.757-.838-.134-.358 2.234.838.134.357-2.234ZM3.995 3.456a1.98 1.98 0 0 1 2.8 0l1.599-1.6a4.242 4.242 0 0 0-5.998 0l1.6 1.6Zm5.598-2.8a5.938 5.938 0 0 0-8.396 0l1.6 1.6a3.677 3.677 0 0 1 5.197 0l1.6-1.6Zm-2.798 2.8a1.976 1.976 0 0 1 0 2.796l1.599 1.6a4.238 4.238 0 0 0 0-5.996l-1.6 1.6ZM9.594 9.05a5.935 5.935 0 0 0 0-8.395l-1.599 1.6a3.673 3.673 0 0 1 0 5.196l1.6 1.6Zm6.798 6.795a1.98 1.98 0 0 1 2.8 0l1.598-1.6a4.242 4.242 0 0 0-5.997 0l1.599 1.6Zm5.597-2.8a5.939 5.939 0 0 0-8.396 0l1.6 1.6a3.677 3.677 0 0 1 5.197 0l1.6-1.6Zm-2.798 2.8a1.977 1.977 0 0 1 0 2.796l1.6 1.6a4.238 4.238 0 0 0 0-5.996l-1.6 1.6Zm2.799 5.596a5.935 5.935 0 0 0 0-8.396l-1.6 1.6a3.673 3.673 0 0 1 0 5.196l1.6 1.6ZM7.995 14.645C4.959 11.61 3.454 8.042 3.438 5.25l-2.262.013c.02 3.518 1.864 7.628 5.22 10.982l1.599-1.6ZM2.3 4.125l-1.697.01.013 2.262 1.697-.01-.013-2.26ZM-.52 5.274c.023 4.062 2.122 8.578 5.717 12.172l1.599-1.6C3.52 12.57 1.76 8.596 1.742 5.26l-2.262.013Zm3.948-.214c-.06-.576.13-1.166.569-1.603l-1.6-1.6a4.23 4.23 0 0 0-1.22 3.435l2.25-.232ZM1.198.656A5.927 5.927 0 0 0-.51 5.464l2.25-.231a3.665 3.665 0 0 1 1.057-2.977L1.198.656ZM.731 6.474 2.42 6.3l-.232-2.25L.5 4.224l.232 2.25Zm18.46 12.168a1.972 1.972 0 0 1-1.605.569l-.232 2.25a4.234 4.234 0 0 0 3.436-1.22l-1.599-1.599Zm-2.846 1.578-.174 1.688 2.25.231.174-1.687-2.25-.232Zm.835 2.928a5.93 5.93 0 0 0 4.81-1.706l-1.6-1.6a3.669 3.669 0 0 1-2.978 1.056l-.232 2.25Zm.215-3.947c-2.794-.016-6.364-1.521-9.4-4.556l-1.6 1.6c3.356 3.354 7.468 5.197 10.987 5.217l.012-2.261ZM5.197 17.445c3.594 3.593 8.112 5.69 12.175 5.714l.013-2.262c-3.338-.019-7.314-1.778-10.59-5.052l-1.598 1.6Zm13.312 4.59.01-1.697-2.262-.013-.01 1.697 2.262.012ZM6.796 6.251a1.962 1.962 0 0 1-1.084.554L6.07 9.04a4.224 4.224 0 0 0 2.325-1.19l-1.599-1.6Zm-2.022 1.85.268 1.675 2.233-.357-.268-1.676-2.233.357Zm1.563 2.613A5.92 5.92 0 0 0 9.594 9.05l-1.599-1.6A3.658 3.658 0 0 1 5.98 8.48l.357 2.234Zm4.457 1.132A17.439 17.439 0 0 1 7.767 7.82L5.776 8.895c.853 1.582 2 3.134 3.419 4.552l1.599-1.6Zm-4.56-4.484-1.493.805 1.074 1.99 1.493-.805-1.074-1.99ZM4.283 9.7a21.396 21.396 0 0 0 3.712 4.947l1.6-1.6a19.134 19.134 0 0 1-3.322-4.42L4.283 9.7Zm11.554 7.229a1.96 1.96 0 0 1 .555-1.083l-1.6-1.6a4.22 4.22 0 0 0-1.188 2.325l2.233.357Zm-2.244-3.882a5.918 5.918 0 0 0-1.664 3.256l2.233.357a3.656 3.656 0 0 1 1.03-2.014l-1.599-1.6Zm-.726 4.552 1.675.268.357-2.234-1.675-.268-.357 2.234Zm1.955-2.726a17.441 17.441 0 0 1-4.028-3.026l-1.6 1.6a19.707 19.707 0 0 0 4.555 3.418l1.073-1.991Zm-6.826-.226a21.407 21.407 0 0 0 4.948 3.711l1.073-1.991a19.146 19.146 0 0 1-4.422-3.32l-1.6 1.6Zm6.48 3.252.805-1.494-1.991-1.072-.805 1.493 1.991 1.073Z" mask="url(#b)"/><defs><linearGradient id="a" x1="3.9" x2="24.003" y1="3.325" y2="6.14" gradientUnits="userSpaceOnUse"><stop stop-color="#CDE4FE"/><stop offset="1" stop-color="#6E8295"/></linearGradient></defs></svg>