<svg xmlns="http://www.w3.org/2000/svg" width="24" height="24" fill="none"><path stroke="url(#a)" stroke-linecap="round" stroke-linejoin="round" stroke-width="1.732" d="m1.243 13.287 2.414-1.931m0 0 .403-.322 5.332-4.266c1.152-.922 1.728-1.383 2.39-1.472.216-.03.434-.03.65 0 .662.09 1.237.55 2.39 1.472l5.332 4.266.402.322m-16.899 0v4.828c0 2.716 0 4.074.692 5.026.223.307.494.577.801.8.952.692 2.31.692 5.026.692h3.862c2.716 0 4.074 0 5.026-.691.307-.224.578-.494.8-.801.692-.952.692-2.31.692-5.026v-4.828m2.415 1.931-2.415-1.931M1.244 9.062l8.15-6.519c1.151-.922 1.727-1.382 2.39-1.472.215-.03.433-.03.649 0 .662.09 1.237.55 2.39 1.472l8.149 6.52m-7.243 8.811H8.486"/><defs><linearGradient id="a" x1="4.511" x2="24.355" y1="4.274" y2="7.061" gradientUnits="userSpaceOnUse"><stop stop-color="#CDE4FE"/><stop offset="1" stop-color="#6E8295"/></linearGradient></defs></svg>