<svg xmlns="http://www.w3.org/2000/svg" width="24" height="24" fill="none"><path stroke="url(#a)" stroke-linecap="round" stroke-linejoin="round" stroke-width="1.732" d="M.897 13.252v.962c0 3.609 0 5.413.919 6.678a4.82 4.82 0 0 0 1.064 1.065c1.265.919 3.07.919 6.678.919h4.33c3.61 0 5.414 0 6.679-.92a4.815 4.815 0 0 0 1.064-1.064c.92-1.265.92-3.07.92-6.678v-.962m-21.654 0c0-2.242 0-3.363.366-4.248A4.812 4.812 0 0 1 3.867 6.4c.884-.366 2.006-.366 4.248-.366h7.217c2.242 0 3.363 0 4.248.366a4.812 4.812 0 0 1 2.604 2.604c.366.885.366 2.006.366 4.248m-21.653 0H22.55M9.318 9.642h4.812M6.912 6.035a4.812 4.812 0 1 1 9.623 0"/><defs><linearGradient id="a" x1="4.154" x2="23.933" y1="4.447" y2="7.216" gradientUnits="userSpaceOnUse"><stop stop-color="#CDE4FE"/><stop offset="1" stop-color="#6E8295"/></linearGradient></defs></svg>