<svg xmlns="http://www.w3.org/2000/svg" width="24" height="24" fill="none"><path stroke="url(#a)" stroke-linecap="round" stroke-linejoin="round" stroke-width="1.732" d="M1.243 12.049v-4.33c0-2.707 0-4.06.69-5.01a3.61 3.61 0 0 1 .798-.798c.948-.689 2.302-.689 5.008-.689h1.202c.652 0 .978 0 1.291.056.384.068.754.198 1.096.384.28.152.534.356 1.043.763.509.407.763.61 1.043.763a3.61 3.61 0 0 0 1.095.384c.313.056.64.056 1.291.056h.6c2.707 0 4.06 0 5.01.69.305.222.575.491.797.798.69.948.69 2.302.69 5.008v1.925M8.94 6.034h-1.2c-2.706 0-4.06 0-5.008.69a3.61 3.61 0 0 0-.799.798c-.689.948-.689 2.302-.689 5.008v3.85c0 2.706 0 4.06.69 5.008.222.306.491.576.798.798.948.69 2.302.69 5.008.69h8.662c2.706 0 4.06 0 5.008-.69.306-.222.576-.492.799-.798.689-.949.689-2.302.689-5.009v-1.443c0-2.707 0-4.06-.69-5.008a3.612 3.612 0 0 0-.798-.799c-.949-.69-2.302-.69-5.008-.69h-.6c-.653 0-.979 0-1.292-.055A3.61 3.61 0 0 1 13.414 8c-.28-.152-.534-.356-1.043-.763-.51-.407-.764-.61-1.043-.763a3.609 3.609 0 0 0-1.096-.384c-.313-.056-.639-.056-1.29-.056Z"/><defs><linearGradient id="a" x1="4.5" x2="24.279" y1="4.447" y2="7.216" gradientUnits="userSpaceOnUse"><stop stop-color="#CDE4FE"/><stop offset="1" stop-color="#6E8295"/></linearGradient></defs></svg>