<svg xmlns="http://www.w3.org/2000/svg" width="50" height="50" fill="none" viewBox="0 0 24 24"><path stroke="#0C0E13" stroke-linejoin="round" stroke-width="1.5" d="M13 3v.6c0 2.25 0 3.375.573 4.163a3 3 0 0 0 .664.664C15.025 9 16.15 9 18.4 9h.6m0 1.237V15.6c0 2.25 0 3.375-.573 4.163a2.988 2.988 0 0 1-.664.664C16.975 21 15.85 21 13.6 21h-3.2c-2.25 0-3.375 0-4.163-.573a3.003 3.003 0 0 1-.664-.664C5 18.975 5 17.85 5 15.6V8.4c0-2.25 0-3.375.573-4.163a3 3 0 0 1 .664-.664C7.025 3 8.15 3 10.4 3h1.363c.98 0 1.47 0 1.921.147.15.048.295.109.435.18.424.216.77.562 1.463 1.255l1.836 1.836c.693.693 1.04 1.04 1.255 1.463.071.14.132.285.18.435.147.451.147.941.147 1.92Z"/><path stroke="#0C0E13" stroke-linecap="round" stroke-linejoin="round" stroke-width="1.5" d="M13 12.5H8m8 3H8"/></svg>